# xmcd
#
# Track frame offsets:
#	150
#	22395
#	37808
#	60564
#	82033
#	113199
#	135440
#	161033
#	189988
#	208499
#	247191
#
# Disc length: 3573 seconds
#
# Revision: 8
# Processed by: cddbd v1.5.2PL0 Copyright (c) Steve Scherf et al.
# Submitted via: Jack! The Knife
#
DISCID=9e0df30b
DTITLE=Gamma Ray - Majestic
DYEAR=2005
DGENRE=Heavy Metal
TTITLE0=My Temple
TTITLE1=Fight
TTITLE2=Strange World
TTITLE3=Hell Is Thy Home
TTITLE4=Blood Religion
TTITLE5=Condemned To Hell
TTITLE6=Spiritual Dictator
TTITLE7=Majesty
TTITLE8=How Long
TTITLE9=Revelation
TTITLE10=Hellfire
EXTD=YEAR: 2005
EXTT0=
EXTT1=
EXTT2=
EXTT3=
EXTT4=
EXTT5=
EXTT6=
EXTT7=
EXTT8=
EXTT9=
EXTT10=
PLAYORDER=
